<svg width="640" height="440" viewBox="0 0 640 440" xmlns="http://www.w3.org/2000/svg" role="img" aria-label="Gráfico radar">
  <rect width="640" height="440" fill="#0d1117"/>
  <polygon points="320,190 345.98076211353316,205 345.98076211353316,235 320,250 294.01923788646684,235 294.01923788646684,205" fill="none" stroke="#30363d" stroke-width="1"/>
  <polygon points="320,160 371.9615242270663,190 371.9615242270663,250 320,280 268.0384757729337,250.00000000000003 268.0384757729337,190" fill="none" stroke="#30363d" stroke-width="1"/>
  <polygon points="320,130 397.9422863405995,175 397.9422863405995,265 320,310 242.05771365940052,265 242.05771365940052,175" fill="none" stroke="#30363d" stroke-width="1"/>
  <polygon points="320,100 423.92304845413264,160 423.92304845413264,280 320,340 216.0769515458674,280.00000000000006 216.07695154586736,160" fill="none" stroke="#30363d" stroke-width="1"/>
  <line x1="320" y1="220" x2="320" y2="100" stroke="#30363d" stroke-width="1"/>
  <line x1="320" y1="220" x2="423.92304845413264" y2="160" stroke="#30363d" stroke-width="1"/>
  <line x1="320" y1="220" x2="423.92304845413264" y2="280" stroke="#30363d" stroke-width="1"/>
  <line x1="320" y1="220" x2="320" y2="340" stroke="#30363d" stroke-width="1"/>
  <line x1="320" y1="220" x2="216.0769515458674" y2="280.00000000000006" stroke="#30363d" stroke-width="1"/>
  <line x1="320" y1="220" x2="216.07695154586736" y2="160" stroke="#30363d" stroke-width="1"/>
  <polygon points="320,100 422.6190233117757,160.75287926696979 411.9309741989451,273.0763727006255 320,293.30948369377063 296.75621156431674,233.41980751032844 315.7729117549719,217.55948946384473" fill="#a9bef3" fill-opacity="0.35" stroke="#a9bef3" stroke-width="2"/>
  <text x="320" y="58" fill="#c9d1d9" font-size="13" font-family="'JetBrains Mono', 'Fira Code', monospace" text-anchor="middle">Java 26.7%</text>
  <text x="460.29611541307906" y="139" fill="#c9d1d9" font-size="13" font-family="'JetBrains Mono', 'Fira Code', monospace" text-anchor="start">JavaScript 26.4%</text>
  <text x="460.29611541307906" y="301" fill="#c9d1d9" font-size="13" font-family="'JetBrains Mono', 'Fira Code', monospace" text-anchor="start">HTML 23.6%</text>
  <text x="320" y="382" fill="#c9d1d9" font-size="13" font-family="'JetBrains Mono', 'Fira Code', monospace" text-anchor="middle">Python 16.3%</text>
  <text x="179.70388458692096" y="301.00000000000006" fill="#c9d1d9" font-size="13" font-family="'JetBrains Mono', 'Fira Code', monospace" text-anchor="end">CSS 6.0%</text>
  <text x="179.70388458692094" y="139" fill="#c9d1d9" font-size="13" font-family="'JetBrains Mono', 'Fira Code', monospace" text-anchor="end">Handlebars 1.1%</text>
</svg>