<svg width="640" height="440" viewBox="0 0 640 440" xmlns="http://www.w3.org/2000/svg" role="img" aria-label="Gráfico radar">
  <rect width="640" height="440" fill="#0d1117"/>
  <polygon points="320,190 350,220 320,250 290,220" fill="none" stroke="#30363d" stroke-width="1"/>
  <polygon points="320,160 380,220 320,280 260,220" fill="none" stroke="#30363d" stroke-width="1"/>
  <polygon points="320,130 410,220 320,310 230,220" fill="none" stroke="#30363d" stroke-width="1"/>
  <polygon points="320,100 440,220 320,340 200,220.00000000000003" fill="none" stroke="#30363d" stroke-width="1"/>
  <line x1="320" y1="220" x2="320" y2="100" stroke="#30363d" stroke-width="1"/>
  <line x1="320" y1="220" x2="440" y2="220" stroke="#30363d" stroke-width="1"/>
  <line x1="320" y1="220" x2="320" y2="340" stroke="#30363d" stroke-width="1"/>
  <line x1="320" y1="220" x2="200" y2="220.00000000000003" stroke="#30363d" stroke-width="1"/>
  <polygon points="320,100 439.6849620924013,220 320,291.18090144024336 293.5397600412199,220" fill="#a9bef3" fill-opacity="0.35" stroke="#a9bef3" stroke-width="2"/>
  <text x="320" y="58" fill="#c9d1d9" font-size="13" font-family="'JetBrains Mono', 'Fira Code', monospace" text-anchor="middle">HTML 35.6%</text>
  <text x="482" y="220" fill="#c9d1d9" font-size="13" font-family="'JetBrains Mono', 'Fira Code', monospace" text-anchor="start">JavaScript 35.5%</text>
  <text x="320" y="382" fill="#c9d1d9" font-size="13" font-family="'JetBrains Mono', 'Fira Code', monospace" text-anchor="middle">Java 21.1%</text>
  <text x="158" y="220.00000000000003" fill="#c9d1d9" font-size="13" font-family="'JetBrains Mono', 'Fira Code', monospace" text-anchor="end">CSS 7.8%</text>
</svg>